<svg width="24" height="24" viewBox="0 0 24 24" fill="none" xmlns="http://www.w3.org/2000/svg">
<g clip-path="url(#clip0_46_3)">
<path d="M23.792 2.15201C23.7527 2.17067 23.7189 2.19928 23.694 2.23501C20.3093 6.46501 16.926 10.695 13.544 14.925C13.437 15.018 13.519 15.213 13.663 15.19C16.102 15.193 18.54 15.19 20.979 15.191C21.0843 15.1965 21.1893 15.1766 21.2854 15.1331C21.3814 15.0896 21.4656 15.0237 21.531 14.941L23.855 12.038C23.9613 11.8978 24.0125 11.7234 23.999 11.548C23.997 8.47101 23.999 5.39501 23.996 2.31801C24.012 2.20801 23.896 2.11301 23.792 2.15201ZM0.0769994 2.16601C-5.51343e-07 2.20401 0.00299945 2.29801 0.000999451 2.37101C0.00233278 5.44567 0.00266612 8.52067 0.00199945 11.596C-0.00459661 11.7646 0.0517176 11.9296 0.159999 12.059L7.8 21.609C7.92 21.761 8.108 21.859 8.305 21.856C10.76 21.856 13.215 21.859 15.67 21.856C15.812 21.876 15.892 21.682 15.786 21.591C10.661 15.176 5.526 8.76601 0.399999 2.35001C0.319999 2.25601 0.225999 2.07801 0.0779995 2.16601H0.0769994Z" fill="#1E1E1E"/>
</g>
<defs>
<clipPath id="clip0_46_3">
<rect width="24" height="24" fill="white"/>
</clipPath>
</defs>
</svg>
